<?xml version="1.0" encoding="UTF-8"?>
<svg version="1.1" xmlns="http://www.w3.org/2000/svg" width="256" height="256">
<path d="M0 0 C2.69105198 2.17574416 4.45532928 3.91065856 6 7 C6.4516686 11.8089422 5.74053537 14.00554815 2.75 17.75 C-4.91485814 28.09368735 -7.39855015 39.9054387 -7.4375 52.625 C-7.44136719 53.54812988 -7.44523438 54.47125977 -7.44921875 55.42236328 C-7.31450477 64.04265447 -5.95482189 72.40116654 -4.5 80.875 C-0.24607925 105.75968416 1.18568086 131.92000873 -13.6875 153.75 C-23.67519746 166.73026599 -37.75358865 173.16948378 -53.7109375 175.5546875 C-68.54073509 177.26281355 -82.97549417 175.92769193 -97.625 173.5 C-117.54101994 170.21837665 -140.30342939 166.86015256 -158 179 C-159.23180344 179.93403278 -160.46110596 180.87137588 -161.6875 181.8125 C-165.33614105 184.22197994 -166.74324426 184.81512344 -171 184 C-176.57894737 180.84210526 -176.57894737 180.84210526 -178 178 C-178.47060844 173.2939156 -178.61473137 171.03868404 -176.1875 166.9375 C-163.62453601 154.05958706 -144.44142031 150.18841579 -127.13916016 149.76806641 C-116.86485257 149.67590898 -106.73494389 150.91543205 -96.6484375 152.80078125 C-87.42272338 154.48749067 -78.45108724 155.31212532 -69.0625 155.375 C-68.04486572 155.38869629 -67.02723145 155.40239258 -65.97875977 155.41650391 C-54.319022 155.34642995 -42.67365365 153.00747789 -33.80859375 145.02734375 C-24.44982046 135.25492303 -21.91116235 123.23935235 -21.96484375 109.9453125 C-22.26200032 99.01195693 -24.12831339 88.33742519 -26.0625 77.59375 C-30.17358043 54.08685475 -29.77328164 27.53326396 -15.75 7.25390625 C-11.15363858 1.33403898 -7.66269283 -1.21630045 0 0 Z " fill="#166DCC" transform="translate(184,6)"/>
<path d="M0 0 C0.87462891 0.00451172 1.74925781 0.00902344 2.65039062 0.01367188 C4.78779047 0.02535166 6.92515463 0.04328311 9.0625 0.0625 C10.3677109 4.94377654 11.34259663 9.50391724 11.6875 14.5625 C11.79964844 16.12484375 11.79964844 16.12484375 11.9140625 17.71875 C11.96304688 18.4921875 12.01203125 19.265625 12.0625 20.0625 C7.2291528 20.14583357 2.82557437 20.01511487 -1.9375 19.0625 C-0.98459549 20.19210204 -0.02463429 21.31574896 0.9375 22.4375 C1.56527344 23.17226562 2.19304687 23.90703125 2.83984375 24.6640625 C5.05463286 27.14092277 5.05463286 27.14092277 7.75390625 29.3984375 C14.68098509 35.48796058 14.68098509 35.48796058 15.76953125 39.98046875 C15.81403409 43.1078048 15.55015633 45.97400993 15.0625 49.0625 C14.84013672 50.61517578 14.84013672 50.61517578 14.61328125 52.19921875 C13.45752427 59.27245146 13.45752427 59.27245146 12.0625 62.0625 C8.97070864 60.6863464 6.86611247 59.11091555 4.48730469 56.71435547 C3.80690125 56.03380096 3.1264978 55.35324646 2.42547607 54.65206909 C1.70241272 53.91868317 0.97934937 53.18529724 0.234375 52.4296875 C-0.51463074 51.67785187 -1.26363647 50.92601624 -2.03533936 50.15139771 C-4.4241302 47.75142099 -6.80586897 45.34457991 -9.1875 42.9375 C-10.80683169 41.30813648 -12.42661802 39.67922466 -14.046875 38.05078125 C-18.01570505 34.05991194 -21.97876899 30.06338585 -25.9375 26.0625 C-31.02163449 29.38127085 -31.02163449 29.38127085 -35.375 33.5625 C-35.88933594 34.1296875 -36.40367188 34.696875 -36.93359375 35.28125 C-38.13540889 37.00084051 -38.13540889 37.00084051 -37.70240784 38.95236206 C-36.78184884 41.49189213 -35.6299 42.719587 -33.70288086 44.60595703 C-33.02225082 45.27990509 -32.34162079 45.95385315 -31.6403656 46.64822388 C-30.90181839 47.36501312 -30.16327118 48.08180237 -29.40234375 48.8203125 C-28.64909317 49.56457489 -27.89584259 50.30883728 -27.11976624 51.07565308 C-24.71185498 53.45351398 -22.29430811 55.82123952 -19.875 58.1875 C-17.45301987 60.56176465 -15.03329738 62.93816357 -12.61952209 65.32077026 C-11.1165904 66.80383401 -9.60874143 68.28193341 -8.09568787 69.75466919 C-7.07947105 70.7561348 -7.07947105 70.7561348 -6.04272461 71.77783203 C-5.44173447 72.36533234 -4.84074432 72.95283264 -4.22154236 73.55813599 C-2.9375 75.0625 -2.9375 75.0625 -2.9375 77.0625 C-11.259002 79.30470854 -20.44901894 81.74725352 -28.9375 79.0625 C-34.94652336 75.17566531 -39.48140492 69.58332576 -43.9375 64.0625 C-44.2675 68.3525 -44.5975 72.6425 -44.9375 77.0625 C-51.90649421 76.5873413 -58.20402388 75.86297296 -64.9375 74.0625 C-65.54868279 53.03328479 -63.40883389 33.5648983 -48.9375 17.0625 C-35.62716623 4.10592925 -18.11448943 -0.1790786 0 0 Z " fill="#176DCC" transform="translate(138.9375,73.9375)"/>
<path d="M0 0 C5.58072451 -0.60480758 9.90748686 -1.02612279 14.69091797 2.27441406 C19.74386093 6.64655525 24.11331405 11.58497924 28.40234375 16.6953125 C28.73234375 12.0753125 29.06234375 7.4553125 29.40234375 2.6953125 C36.27715291 3.2174499 42.70945037 4.04951904 49.40234375 5.6953125 C49.9395457 27.00432334 47.18200895 46.87177027 32.69921875 63.41796875 C29.9880368 66.08831964 27.1421126 66.08160173 23.44140625 66.0546875 C20.02227677 65.4520823 18.47045323 63.32745183 16.40234375 60.6953125 C14.98238097 57.85538695 15.12104607 55.84738792 15.40234375 52.6953125 C16.96875 50.0625 16.96875 50.0625 18.96484375 47.5703125 C21.6795192 44.53124746 21.6795192 44.53124746 22.19410706 40.76882935 C21.24230512 38.27619381 20.07221679 37.01617374 18.16772461 35.15185547 C17.48709457 34.47790741 16.80646454 33.80395935 16.10520935 33.10958862 C15.36666214 32.39279938 14.62811493 31.67601013 13.8671875 30.9375 C13.11393692 30.19323761 12.36068634 29.44897522 11.58460999 28.68215942 C9.17669873 26.30429852 6.75915186 23.93657298 4.33984375 21.5703125 C1.91786362 19.19604785 -0.50185887 16.81964893 -2.91563416 14.43704224 C-4.41856585 12.95397849 -5.92641482 11.47587909 -7.43946838 10.00314331 C-8.11694626 9.33549957 -8.79442413 8.66785583 -9.49243164 7.97998047 C-10.09342178 7.39248016 -10.69441193 6.80497986 -11.31361389 6.19967651 C-12.59765625 4.6953125 -12.59765625 4.6953125 -12.59765625 2.6953125 C-8.43094741 1.50482426 -4.25133682 0.82164816 0 0 Z " fill="#166DCC" transform="translate(50.59765625,184.3046875)"/>
<path d="M0 0 C3.05135767 1.35813018 5.09445642 2.87004221 7.40405273 5.2722168 C8.04829697 5.93597824 8.6925412 6.59973969 9.35630798 7.28361511 C10.04181229 7.99826431 10.72731659 8.71291351 11.43359375 9.44921875 C12.90110442 10.95174668 14.36922187 12.45368216 15.83789062 13.95507812 C18.14649402 16.32575002 20.45014899 18.70065789 22.7434082 21.08618164 C24.96011094 23.38731213 27.19508021 25.66932794 29.43359375 27.94921875 C30.11707382 28.66994064 30.80055389 29.39066254 31.50474548 30.13322449 C32.47584007 31.11468193 32.47584007 31.11468193 33.46655273 32.1159668 C34.3111631 32.98961128 34.3111631 32.98961128 35.1728363 33.88090515 C37.01447177 35.25847373 37.01447177 35.25847373 39.59413147 34.76838684 C42.29408351 33.90607554 43.80356697 32.78341753 45.9375 30.9375 C48.56290521 28.89332897 49.80019222 28.03996156 53.125 27.375 C56.78278394 28.17017042 59.07925317 29.69057228 62 32 C63.62279855 35.2455971 63.54630929 38.49177287 63 42 C57.03873903 52.07247543 44.41860521 56.66696417 33.66015625 59.6484375 C23.52565985 62.10636457 13.37896225 62.13459749 3 62 C2.49395076 59.60530271 1.99500483 57.20948283 1.5 54.8125 C1.35691406 54.13896484 1.21382812 53.46542969 1.06640625 52.77148438 C0.30028186 49.03206773 0 45.85912726 0 42 C4.62 41.67 9.24 41.34 14 41 C12.2675 39.5459375 12.2675 39.5459375 10.5 38.0625 C-2.1339863 26.88498238 -2.1339863 26.88498238 -3.1328125 20.69140625 C-3.3117303 16.71048523 -2.75551608 12.90915904 -2 9 C-1.83242187 8.00871094 -1.66484375 7.01742187 -1.4921875 5.99609375 C-1 3.5 -1 3.5 0 0 Z " fill="#166DCC" transform="translate(187,38)"/>
</svg>
